<svg width="20" height="20" viewBox="0 0 20 20" fill="none" xmlns="http://www.w3.org/2000/svg">
<path d="M9.99999 1.66663C5.39999 1.66663 1.66666 5.39996 1.66666 9.99996C1.66666 14.6 5.39999 18.3333 9.99999 18.3333C14.6 18.3333 18.3333 14.6 18.3333 9.99996C18.3333 5.39996 14.6 1.66663 9.99999 1.66663ZM5.89166 15.2333C6.24999 14.4833 8.43332 13.75 9.99999 13.75C11.5667 13.75 13.7583 14.4833 14.1083 15.2333C12.975 16.1333 11.55 16.6666 9.99999 16.6666C8.44999 16.6666 7.02499 16.1333 5.89166 15.2333ZM15.3 14.025C14.1083 12.575 11.2167 12.0833 9.99999 12.0833C8.78332 12.0833 5.89166 12.575 4.69999 14.025C3.84999 12.9083 3.33332 11.5166 3.33332 9.99996C3.33332 6.32496 6.32499 3.33329 9.99999 3.33329C13.675 3.33329 16.6667 6.32496 16.6667 9.99996C16.6667 11.5166 16.15 12.9083 15.3 14.025ZM9.99999 4.99996C8.38332 4.99996 7.08332 6.29996 7.08332 7.91663C7.08332 9.53329 8.38332 10.8333 9.99999 10.8333C11.6167 10.8333 12.9167 9.53329 12.9167 7.91663C12.9167 6.29996 11.6167 4.99996 9.99999 4.99996ZM9.99999 9.16663C9.30832 9.16663 8.74999 8.60829 8.74999 7.91663C8.74999 7.22496 9.30832 6.66663 9.99999 6.66663C10.6917 6.66663 11.25 7.22496 11.25 7.91663C11.25 8.60829 10.6917 9.16663 9.99999 9.16663Z" fill="currentColor"/>
</svg>
