<svg width="16" height="16" viewBox="0 0 16 16" fill="none" xmlns="http://www.w3.org/2000/svg">
<path d="M8 4.66663C8.74 4.66663 9.33333 4.06663 9.33333 3.33329C9.33333 3.07996 9.26667 2.84663 9.14 2.64663L8 0.666626L6.86 2.64663C6.73333 2.84663 6.66667 3.07996 6.66667 3.33329C6.66667 4.06663 7.26667 4.66663 8 4.66663ZM12 6.66663H8.66667V5.33329H7.33333V6.66663H4C2.89333 6.66663 2 7.55996 2 8.66663V14.6666C2 15.0333 2.3 15.3333 2.66667 15.3333H13.3333C13.7 15.3333 14 15.0333 14 14.6666V8.66663C14 7.55996 13.1067 6.66663 12 6.66663ZM12.6667 14H3.33333V12C3.93333 11.9933 4.50667 11.7533 4.93333 11.3266L5.66 10.6133L6.37333 11.3266C7.24667 12.2 8.76667 12.1933 9.63333 11.3266L10.3533 10.6133L11.0667 11.3266C11.4933 11.7533 12.0667 11.9933 12.6667 12V14ZM12.6667 11C12.3267 10.9933 12.0067 10.8666 11.7667 10.62L10.3467 9.19996L8.92 10.62C8.42667 11.1133 7.56667 11.1133 7.07333 10.62L5.65333 9.19996L4.22667 10.62C3.99333 10.86 3.67333 10.9933 3.33333 11V8.66663C3.33333 8.29996 3.63333 7.99996 4 7.99996H12C12.3667 7.99996 12.6667 8.29996 12.6667 8.66663V11Z" fill="currentColor"/>
</svg>
