<svg width="16" height="16" viewBox="0 0 16 16" fill="none" xmlns="http://www.w3.org/2000/svg">
<path d="M6.42666 5.09325C6.58 4.75992 6.66666 4.39325 6.66666 3.99992C6.66666 2.52659 5.47333 1.33325 3.99999 1.33325C2.52666 1.33325 1.33333 2.52659 1.33333 3.99992C1.33333 5.47325 2.52666 6.66659 3.99999 6.66659C4.39333 6.66659 4.75999 6.57992 5.09333 6.42659L6.66666 7.99992L5.09333 9.57325C4.75999 9.41992 4.39333 9.33325 3.99999 9.33325C2.52666 9.33325 1.33333 10.5266 1.33333 11.9999C1.33333 13.4733 2.52666 14.6666 3.99999 14.6666C5.47333 14.6666 6.66666 13.4733 6.66666 11.9999C6.66666 11.6066 6.58 11.2399 6.42666 10.9066L8 9.33325L12.6667 13.9999H14.6667V13.3333L6.42666 5.09325ZM3.99999 5.33325C3.26666 5.33325 2.66666 4.73992 2.66666 3.99992C2.66666 3.25992 3.26666 2.66659 3.99999 2.66659C4.73333 2.66659 5.33333 3.25992 5.33333 3.99992C5.33333 4.73992 4.73333 5.33325 3.99999 5.33325ZM3.99999 13.3333C3.26666 13.3333 2.66666 12.7399 2.66666 11.9999C2.66666 11.2599 3.26666 10.6666 3.99999 10.6666C4.73333 10.6666 5.33333 11.2599 5.33333 11.9999C5.33333 12.7399 4.73333 13.3333 3.99999 13.3333ZM8 8.33325C7.81333 8.33325 7.66666 8.18659 7.66666 7.99992C7.66666 7.81325 7.81333 7.66659 8 7.66659C8.18666 7.66659 8.33333 7.81325 8.33333 7.99992C8.33333 8.18659 8.18666 8.33325 8 8.33325ZM12.6667 1.99992L8.66666 5.99992L10 7.33325L14.6667 2.66659V1.99992H12.6667Z" fill="currentColor"/>
</svg>
