<svg width="16" height="16" viewBox="0 0 16 16" fill="none" xmlns="http://www.w3.org/2000/svg">
<path d="M7.33334 4.66671H8.66668V6.00004H7.33334V4.66671ZM7.33334 7.33337H8.66668V11.3334H7.33334V7.33337ZM8.00001 1.33337C4.32001 1.33337 1.33334 4.32004 1.33334 8.00004C1.33334 11.68 4.32001 14.6667 8.00001 14.6667C11.68 14.6667 14.6667 11.68 14.6667 8.00004C14.6667 4.32004 11.68 1.33337 8.00001 1.33337ZM8.00001 13.3334C5.06001 13.3334 2.66668 10.94 2.66668 8.00004C2.66668 5.06004 5.06001 2.66671 8.00001 2.66671C10.94 2.66671 13.3333 5.06004 13.3333 8.00004C13.3333 10.94 10.94 13.3334 8.00001 13.3334Z" fill="currentColor"/>
</svg>
