<svg width="16" height="16" viewBox="0 0 16 16" fill="none" xmlns="http://www.w3.org/2000/svg">
<path d="M7.99999 3.99996C8.73332 3.99996 9.33332 4.59996 9.33332 5.33329C9.33332 6.06663 8.73332 6.66663 7.99999 6.66663C7.26666 6.66663 6.66666 6.06663 6.66666 5.33329C6.66666 4.59996 7.26666 3.99996 7.99999 3.99996ZM7.99999 10.6666C9.79999 10.6666 11.8667 11.5266 12 12H3.99999C4.15332 11.52 6.20666 10.6666 7.99999 10.6666ZM7.99999 2.66663C6.52666 2.66663 5.33332 3.85996 5.33332 5.33329C5.33332 6.80663 6.52666 7.99996 7.99999 7.99996C9.47332 7.99996 10.6667 6.80663 10.6667 5.33329C10.6667 3.85996 9.47332 2.66663 7.99999 2.66663ZM7.99999 9.33329C6.21999 9.33329 2.66666 10.2266 2.66666 12V13.3333H13.3333V12C13.3333 10.2266 9.77999 9.33329 7.99999 9.33329Z" fill="currentColor"/>
</svg>
