<svg width="16" height="16" viewBox="0 0 16 16" fill="none" xmlns="http://www.w3.org/2000/svg">
<path d="M7.99999 2.66663V0.666626L5.33332 3.33329L7.99999 5.99996V3.99996C10.2067 3.99996 12 5.79329 12 7.99996C12 8.67329 11.8333 9.31329 11.5333 9.86663L12.5067 10.84C13.0267 10.02 13.3333 9.04663 13.3333 7.99996C13.3333 5.05329 10.9467 2.66663 7.99999 2.66663ZM7.99999 12C5.79332 12 3.99999 10.2066 3.99999 7.99996C3.99999 7.32663 4.16666 6.68663 4.46666 6.13329L3.49332 5.15996C2.97332 5.97996 2.66666 6.95329 2.66666 7.99996C2.66666 10.9466 5.05332 13.3333 7.99999 13.3333V15.3333L10.6667 12.6666L7.99999 9.99996V12Z" fill="currentColor"/>
</svg>
